<svg id="Layer_1" data-name="Layer 1" xmlns="http://www.w3.org/2000/svg" viewBox="0 0 340 213"><defs><style>.cls-1{fill:#fff;}</style></defs><title>Attentional Logo Option 2</title><path class="cls-1" d="M332.15,99.77A192.48,192.48,0,0,0,224,13.52C172.58-2.53,114.4,5.08,68.37,33c-25,15.18-45.88,36.38-62.1,60.57A13.12,13.12,0,1,0,28,108.34,210.74,210.74,0,0,1,54,77.08c38.72-38.2,96.82-53.76,149.63-42a165.21,165.21,0,0,1,101.91,71.18,164.73,164.73,0,0,1-69.94,60.45,75.86,75.86,0,0,0,8.87-35.64A79.25,79.25,0,0,0,243,116.43a38.06,38.06,0,1,1-44.33-55.35,75.45,75.45,0,0,0-30.81-6.63,76.66,76.66,0,1,0,0,153.32,189.83,189.83,0,0,0,94.75-25.52,189.22,189.22,0,0,0,69.58-69.32l3.85-6.63Z"/></svg>