<svg id="Layer_1" data-name="Layer 1" xmlns="http://www.w3.org/2000/svg" xmlns:xlink="http://www.w3.org/1999/xlink" viewBox="0 0 440 71"><defs><style>.cls-1{fill:url(#linear-gradient);}.cls-2{fill:#fff;}</style><linearGradient id="linear-gradient" x1="9.1" y1="21.97" x2="80" y2="45.78" gradientUnits="userSpaceOnUse"><stop offset="0" stop-color="#0d8dff"/><stop offset="0.67" stop-color="#6736ff"/><stop offset="0.99" stop-color="#950aff"/></linearGradient></defs><title>Attentional Logo Option 2</title><path class="cls-1" d="M86.82,33.87A46.53,46.53,0,0,0,60.69,13a46.75,46.75,0,0,0-37.63,4.71A48.76,48.76,0,0,0,8,32.38a3.17,3.17,0,1,0,5.25,3.57,50.94,50.94,0,0,1,6.29-7.56,39.61,39.61,0,0,1,60.8,7.07A39.82,39.82,0,0,1,63.49,50.07a18.34,18.34,0,0,0,2.14-8.62,19.16,19.16,0,0,0-.37-3.55A9.2,9.2,0,1,1,54.54,24.52a18.24,18.24,0,0,0-7.45-1.6A18.53,18.53,0,1,0,47.1,60,46.13,46.13,0,0,0,86.82,37.06l.93-1.6Z"/><path class="cls-2" d="M131.28,57.06l-1.74-4.48h-.24a13.27,13.27,0,0,1-4.67,4,15.09,15.09,0,0,1-6.27,1.11,10.13,10.13,0,0,1-7.47-2.71q-2.73-2.71-2.73-7.72,0-5.25,3.67-7.74t11.07-2.76l5.72-.18V35.1q0-5-5.13-5a23.38,23.38,0,0,0-9.29,2.39l-3-6.07a26.79,26.79,0,0,1,12.62-3q6.63,0,10.17,2.89t3.54,8.79v22Zm-2.65-15.27-3.48.12a11.15,11.15,0,0,0-5.84,1.42,4.44,4.44,0,0,0-1.92,4q0,3.8,4.36,3.8a6.91,6.91,0,0,0,5-1.8,6.31,6.31,0,0,0,1.87-4.78Z"/><path class="cls-2" d="M159.55,50.49a19.49,19.49,0,0,0,5.66-1v6.69a20.2,20.2,0,0,1-8.26,1.5q-5.4,0-7.86-2.73t-2.46-8.18V30.85h-4.3V27l5-3,2.6-7h5.75v7h9.23v6.75h-9.23V46.74a3.51,3.51,0,0,0,1.08,2.83A4.24,4.24,0,0,0,159.55,50.49Z"/><path class="cls-2" d="M185.88,50.49a19.49,19.49,0,0,0,5.66-1v6.69a20.2,20.2,0,0,1-8.26,1.5q-5.4,0-7.86-2.73T173,46.74V30.85h-4.3V27l5-3,2.6-7H182v7h9.23v6.75H182V46.74A3.51,3.51,0,0,0,183,49.57,4.24,4.24,0,0,0,185.88,50.49Z"/><path class="cls-2" d="M212.06,57.65q-8,0-12.44-4.39t-4.48-12.44q0-8.29,4.14-12.81t11.46-4.52q7,0,10.88,4t3.89,11v4.36H204.24a8.66,8.66,0,0,0,2.27,6,8,8,0,0,0,6,2.15,24.7,24.7,0,0,0,5.63-.62,28.14,28.14,0,0,0,5.54-2v7a21.09,21.09,0,0,1-5,1.75A31.73,31.73,0,0,1,212.06,57.65Zm-1.27-27.77a5.71,5.71,0,0,0-4.48,1.81,8.4,8.4,0,0,0-1.86,5.15h12.62a7.49,7.49,0,0,0-1.74-5.15A5.89,5.89,0,0,0,210.79,29.88Z"/><path class="cls-2" d="M262.61,57.06h-9V37.81a9.26,9.26,0,0,0-1.27-5.35,4.62,4.62,0,0,0-4-1.78q-3.77,0-5.45,2.52t-1.68,8.36V57.06h-9v-33h6.87l1.21,4.22h.5a9.5,9.5,0,0,1,4.14-3.61,14.12,14.12,0,0,1,6-1.22q5.75,0,8.73,3.11t3,9Z"/><path class="cls-2" d="M284.56,50.49a19.49,19.49,0,0,0,5.66-1v6.69a20.2,20.2,0,0,1-8.26,1.5q-5.4,0-7.86-2.73t-2.46-8.18V30.85h-4.3V27l5-3,2.6-7h5.75v7h9.23v6.75h-9.23V46.74a3.51,3.51,0,0,0,1.08,2.83A4.24,4.24,0,0,0,284.56,50.49Z"/><path class="cls-2" d="M295.45,15.58q0-4.39,4.89-4.39t4.89,4.39A4.28,4.28,0,0,1,304,18.84,5.14,5.14,0,0,1,300.34,20Q295.45,20,295.45,15.58Zm9.38,41.48h-9v-33h9Z"/><path class="cls-2" d="M343.17,40.52q0,8-4.25,12.59T327.1,57.65a16.53,16.53,0,0,1-8.37-2.08,13.84,13.84,0,0,1-5.57-6,20.06,20.06,0,0,1-1.95-9.08q0-8.08,4.22-12.56t11.85-4.48a16.65,16.65,0,0,1,8.37,2.06,13.78,13.78,0,0,1,5.57,5.93A19.9,19.9,0,0,1,343.17,40.52Zm-22.79,0q0,4.9,1.61,7.4a5.75,5.75,0,0,0,5.23,2.51,5.66,5.66,0,0,0,5.17-2.49Q334,45.45,334,40.52t-1.59-7.34q-1.59-2.45-5.22-2.45T322,33.16Q320.38,35.6,320.38,40.52Z"/><path class="cls-2" d="M380.08,57.06h-9V37.81a9.26,9.26,0,0,0-1.27-5.35,4.62,4.62,0,0,0-4-1.78q-3.77,0-5.45,2.52t-1.68,8.36V57.06h-9v-33h6.87l1.21,4.22h.5a9.5,9.5,0,0,1,4.14-3.61,14.12,14.12,0,0,1,6-1.22q5.75,0,8.73,3.11t3,9Z"/><path class="cls-2" d="M409.11,57.06l-1.74-4.48h-.24a13.27,13.27,0,0,1-4.67,4,15.09,15.09,0,0,1-6.27,1.11,10.13,10.13,0,0,1-7.47-2.71Q386,52.23,386,47.21q0-5.25,3.67-7.74t11.07-2.76l5.72-.18V35.1q0-5-5.13-5A23.38,23.38,0,0,0,392,32.47l-3-6.07a26.79,26.79,0,0,1,12.62-3q6.63,0,10.17,2.89t3.54,8.79v22Zm-2.65-15.27-3.48.12a11.15,11.15,0,0,0-5.84,1.42,4.44,4.44,0,0,0-1.92,4q0,3.8,4.36,3.8a6.91,6.91,0,0,0,5-1.8,6.31,6.31,0,0,0,1.87-4.78Z"/><path class="cls-2" d="M432.5,57.06h-9V11.18h9Z"/></svg>