<svg id="Layer_1" data-name="Layer 1" xmlns="http://www.w3.org/2000/svg" viewBox="0 0 440 233"><defs><style>.cls-1{fill:#fff;}</style></defs><title>Attentional Logo Option 2</title><path class="cls-1" d="M329.63,68.19a130.14,130.14,0,0,0-73.1-58.32C221.74-1,182.41,4.17,151.29,23.06c-16.9,10.26-31,24.6-42,41A8.87,8.87,0,1,0,124,74a142.48,142.48,0,0,1,17.6-21.14C167.76,27,207,16.5,242.75,24.48a111.7,111.7,0,0,1,68.9,48.13,111.37,111.37,0,0,1-47.29,40.87,51.29,51.29,0,0,0,6-24.1,53.58,53.58,0,0,0-1-9.93,25.73,25.73,0,1,1-30-37.42,51,51,0,0,0-20.83-4.48,51.83,51.83,0,1,0,0,103.66A129,129,0,0,0,329.63,77.09l2.6-4.48Z"/><path class="cls-1" d="M37.79,228l-2.28-5.87H35.2a17.39,17.39,0,0,1-6.12,5.2,19.78,19.78,0,0,1-8.21,1.45q-6.22,0-9.79-3.55T7.5,215.06q0-6.88,4.81-10.14t14.51-3.61l7.49-.23v-1.89q0-6.57-6.72-6.57-5.18,0-12.17,3.13l-3.9-8a35.1,35.1,0,0,1,16.54-3.9q8.69,0,13.33,3.79T46,199.18V228Zm-3.48-20-4.56.15q-5.14.15-7.65,1.85a5.82,5.82,0,0,0-2.51,5.18q0,5,5.72,5a9.05,9.05,0,0,0,6.55-2.36,8.27,8.27,0,0,0,2.45-6.26Z"/><path class="cls-1" d="M74.83,219.35A25.54,25.54,0,0,0,82.25,218v8.77a26.47,26.47,0,0,1-10.82,2q-7.07,0-10.3-3.57t-3.23-10.72V193.62H52.27v-5l6.49-3.94,3.4-9.12h7.53v9.2H81.79v8.85H69.69v20.82a4.6,4.6,0,0,0,1.41,3.71A5.56,5.56,0,0,0,74.83,219.35Z"/><path class="cls-1" d="M109.34,219.35a25.54,25.54,0,0,0,7.42-1.35v8.77a26.47,26.47,0,0,1-10.82,2q-7.07,0-10.3-3.57t-3.23-10.72V193.62H86.77v-5l6.49-3.94,3.4-9.12h7.53v9.2h12.09v8.85H104.2v20.82a4.6,4.6,0,0,0,1.41,3.71A5.56,5.56,0,0,0,109.34,219.35Z"/><path class="cls-1" d="M143.63,228.74q-10.43,0-16.3-5.76t-5.87-16.3q0-10.86,5.43-16.79t15-5.93q9.16,0,14.26,5.22t5.1,14.41v5.72H133.4a11.34,11.34,0,0,0,3,7.84q2.78,2.82,7.8,2.82a32.37,32.37,0,0,0,7.38-.81,36.87,36.87,0,0,0,7.26-2.59v9.12a27.64,27.64,0,0,1-6.61,2.3A41.58,41.58,0,0,1,143.63,228.74ZM142,192.34a7.48,7.48,0,0,0-5.87,2.37,11,11,0,0,0-2.43,6.74H150.2a9.82,9.82,0,0,0-2.28-6.74A7.72,7.72,0,0,0,142,192.34Z"/><path class="cls-1" d="M209.88,228H198.09V202.74q0-4.67-1.66-7t-5.29-2.34q-4.95,0-7.15,3.3t-2.2,11V228H170v-43.2h9l1.58,5.52h.66a12.44,12.44,0,0,1,5.43-4.73,18.5,18.5,0,0,1,7.86-1.6q7.53,0,11.44,4.08t3.9,11.77Z"/><path class="cls-1" d="M238.64,219.35a25.54,25.54,0,0,0,7.42-1.35v8.77a26.47,26.47,0,0,1-10.82,2q-7.07,0-10.3-3.57t-3.23-10.72V193.62h-5.64v-5l6.49-3.94,3.4-9.12h7.53v9.2H245.6v8.85H233.5v20.82a4.6,4.6,0,0,0,1.41,3.71A5.56,5.56,0,0,0,238.64,219.35Z"/><path class="cls-1" d="M252.91,173.61q0-5.76,6.41-5.76t6.41,5.76a5.61,5.61,0,0,1-1.6,4.27,6.74,6.74,0,0,1-4.81,1.53Q252.91,179.4,252.91,173.61ZM265.2,228H253.41v-43.2H265.2Z"/><path class="cls-1" d="M315.44,206.29q0,10.55-5.56,16.5t-15.49,6a21.66,21.66,0,0,1-11-2.72,18.13,18.13,0,0,1-7.3-7.82,26.29,26.29,0,0,1-2.55-11.9q0-10.58,5.52-16.46T294.61,184a21.82,21.82,0,0,1,11,2.7,18.06,18.06,0,0,1,7.3,7.77A26.07,26.07,0,0,1,315.44,206.29Zm-29.87,0q0,6.42,2.1,9.7t6.86,3.28q4.71,0,6.78-3.26t2.07-9.72q0-6.41-2.09-9.62t-6.84-3.2q-4.72,0-6.8,3.19T285.57,206.29Z"/><path class="cls-1" d="M363.82,228H352V202.74q0-4.67-1.66-7t-5.29-2.34q-4.95,0-7.15,3.3t-2.2,11V228H323.94v-43.2h9l1.58,5.52h.66a12.44,12.44,0,0,1,5.43-4.73,18.5,18.5,0,0,1,7.86-1.6q7.53,0,11.44,4.08t3.9,11.77Z"/><path class="cls-1" d="M401.84,228l-2.28-5.87h-.31a17.39,17.39,0,0,1-6.12,5.2,19.78,19.78,0,0,1-8.21,1.45q-6.22,0-9.79-3.55t-3.57-10.12q0-6.88,4.81-10.14t14.51-3.61l7.49-.23v-1.89q0-6.57-6.72-6.57-5.18,0-12.17,3.13l-3.9-8a35.1,35.1,0,0,1,16.54-3.9q8.69,0,13.33,3.79t4.64,11.51V228Zm-3.48-20-4.56.15q-5.14.15-7.65,1.85a5.82,5.82,0,0,0-2.51,5.18q0,5,5.72,5a9.05,9.05,0,0,0,6.55-2.36,8.27,8.27,0,0,0,2.45-6.26Z"/><path class="cls-1" d="M432.5,228H420.72V167.85H432.5Z"/></svg>