<svg id="Layer_1" data-name="Layer 1" xmlns="http://www.w3.org/2000/svg" viewBox="0 0 439.37 232.44"><defs><style>.cls-1{fill:#fff;}</style></defs><title>Attentional Logo</title><path class="cls-1" d="M37.39,227.74l-2.28-5.88H34.8a17.39,17.39,0,0,1-6.13,5.2,19.78,19.78,0,0,1-8.22,1.45q-6.22,0-9.8-3.56T7.09,214.83q0-6.88,4.81-10.15t14.51-3.61l7.5-.23v-1.9q0-6.57-6.72-6.57Q22,192.37,15,195.5l-3.9-8a35.12,35.12,0,0,1,16.54-3.9q8.7,0,13.34,3.79t4.64,11.52v28.8Zm-3.48-20-4.56.15q-5.14.15-7.65,1.86a5.83,5.83,0,0,0-2.51,5.18q0,5,5.72,5a9.06,9.06,0,0,0,6.55-2.36,8.28,8.28,0,0,0,2.45-6.26Z"/><path class="cls-1" d="M74.45,219.12a25.55,25.55,0,0,0,7.42-1.35v8.78a26.48,26.48,0,0,1-10.82,2q-7.07,0-10.3-3.58t-3.23-10.73V193.38H51.87v-5l6.49-3.94,3.4-9.12h7.54v9.2h12.1v8.85H69.31v20.83a4.6,4.6,0,0,0,1.41,3.71A5.56,5.56,0,0,0,74.45,219.12Z"/><path class="cls-1" d="M109,219.12a25.55,25.55,0,0,0,7.42-1.35v8.78a26.48,26.48,0,0,1-10.82,2q-7.07,0-10.3-3.58T92,214.21V193.38H86.4v-5l6.49-3.94,3.4-9.12h7.54v9.2h12.1v8.85h-12.1v20.83a4.6,4.6,0,0,0,1.41,3.71A5.56,5.56,0,0,0,109,219.12Z"/><path class="cls-1" d="M143.28,228.51q-10.43,0-16.31-5.76t-5.88-16.31q0-10.86,5.43-16.8t15-5.93q9.16,0,14.26,5.22t5.1,14.42v5.72H133a11.35,11.35,0,0,0,3,7.85q2.78,2.82,7.81,2.82a32.38,32.38,0,0,0,7.38-.81,36.89,36.89,0,0,0,7.27-2.59v9.12a27.65,27.65,0,0,1-6.61,2.3A41.6,41.6,0,0,1,143.28,228.51Zm-1.66-36.41a7.49,7.49,0,0,0-5.88,2.38,11,11,0,0,0-2.43,6.75h16.54a9.82,9.82,0,0,0-2.28-6.75A7.72,7.72,0,0,0,141.62,192.1Z"/><path class="cls-1" d="M209.56,227.74H197.77V202.5q0-4.68-1.66-7t-5.3-2.34q-4.95,0-7.15,3.31t-2.21,11v20.33H169.67V184.52h9l1.59,5.53h.66a12.45,12.45,0,0,1,5.43-4.73,18.5,18.5,0,0,1,7.87-1.6q7.54,0,11.44,4.08t3.9,11.77Z"/><path class="cls-1" d="M238.34,219.12a25.55,25.55,0,0,0,7.42-1.35v8.78a26.48,26.48,0,0,1-10.82,2q-7.07,0-10.3-3.58t-3.23-10.73V193.38h-5.64v-5l6.49-3.94,3.4-9.12h7.54v9.2h12.1v8.85H233.2v20.83a4.6,4.6,0,0,0,1.41,3.71A5.56,5.56,0,0,0,238.34,219.12Z"/><path class="cls-1" d="M252.61,173.35q0-5.76,6.42-5.76t6.42,5.76a5.62,5.62,0,0,1-1.6,4.27,6.74,6.74,0,0,1-4.81,1.53Q252.61,179.15,252.61,173.35Zm12.29,54.39H253.11V184.52H264.9Z"/><path class="cls-1" d="M315.17,206.05q0,10.55-5.57,16.51t-15.5,6a21.67,21.67,0,0,1-11-2.73,18.14,18.14,0,0,1-7.31-7.83,26.3,26.3,0,0,1-2.55-11.91q0-10.59,5.53-16.47t15.54-5.88a21.83,21.83,0,0,1,11,2.7,18.07,18.07,0,0,1,7.31,7.77A26.09,26.09,0,0,1,315.17,206.05Zm-29.88,0q0,6.42,2.11,9.7t6.86,3.28q4.71,0,6.78-3.27t2.07-9.72q0-6.42-2.09-9.63t-6.84-3.21q-4.72,0-6.8,3.19T285.29,206.05Z"/><path class="cls-1" d="M363.57,227.74H351.78V202.5q0-4.68-1.66-7t-5.3-2.34q-4.95,0-7.15,3.31t-2.21,11v20.33H323.68V184.52h9l1.59,5.53h.66a12.45,12.45,0,0,1,5.43-4.73,18.5,18.5,0,0,1,7.87-1.6q7.54,0,11.44,4.08t3.9,11.77Z"/><path class="cls-1" d="M401.61,227.74l-2.28-5.88H399a17.39,17.39,0,0,1-6.13,5.2,19.78,19.78,0,0,1-8.22,1.45q-6.22,0-9.8-3.56t-3.58-10.13q0-6.88,4.81-10.15t14.51-3.61l7.5-.23v-1.9q0-6.57-6.72-6.57-5.18,0-12.18,3.13l-3.9-8a35.12,35.12,0,0,1,16.54-3.9q8.7,0,13.34,3.79t4.64,11.52v28.8Zm-3.48-20-4.56.15q-5.14.15-7.65,1.86a5.83,5.83,0,0,0-2.51,5.18q0,5,5.72,5a9.06,9.06,0,0,0,6.55-2.36,8.28,8.28,0,0,0,2.45-6.26Z"/><path class="cls-1" d="M432.28,227.74H420.5V167.59h11.79Z"/><path class="cls-1" d="M329.36,67.88A130.2,130.2,0,0,0,256.23,9.54C221.43-1.31,182.08,3.83,150.94,22.73c-16.91,10.27-31,24.61-42,41a8.88,8.88,0,1,0,14.68,10,142.55,142.55,0,0,1,17.61-21.15c26.19-25.84,65.49-36.36,101.21-28.38a111.75,111.75,0,0,1,68.93,48.15,111.43,111.43,0,0,1-47.31,40.89,51.31,51.31,0,0,0,6-24.11,53.61,53.61,0,0,0-1-9.93,25.74,25.74,0,1,1-30-37.44,51,51,0,0,0-20.84-4.48,51.85,51.85,0,1,0,0,103.71A129.07,129.07,0,0,0,329.36,76.79l2.6-4.48Z"/></svg>