<svg id="Layer_1" data-name="Layer 1" xmlns="http://www.w3.org/2000/svg" xmlns:xlink="http://www.w3.org/1999/xlink" viewBox="0 0 439.37 70.87"><defs><style>.cls-1{fill:#fff;}.cls-2{fill:url(#linear-gradient);}</style><linearGradient id="linear-gradient" x1="17.6" y1="28.59" x2="80.77" y2="42.67" gradientUnits="userSpaceOnUse"><stop offset="0.01" stop-color="#59a2ee"/><stop offset="0.78" stop-color="#8448f3"/><stop offset="1" stop-color="#912df4"/></linearGradient></defs><title>Attentional Logo</title><path class="cls-1" d="M130.93,57l-1.74-4.48H129a13.27,13.27,0,0,1-4.67,4A15.1,15.1,0,0,1,118,57.6a10.13,10.13,0,0,1-7.48-2.71q-2.73-2.71-2.73-7.73,0-5.25,3.67-7.74t11.08-2.76l5.72-.18V35q0-5-5.13-5a23.39,23.39,0,0,0-9.29,2.39l-3-6.08a26.8,26.8,0,0,1,12.63-3q6.64,0,10.18,2.89T137.21,35V57Zm-2.66-15.28-3.48.12A11.15,11.15,0,0,0,119,43.26a4.45,4.45,0,0,0-1.92,4Q117,51,121.4,51a6.91,6.91,0,0,0,5-1.8,6.32,6.32,0,0,0,1.87-4.78Z"/><path class="cls-1" d="M159.21,50.43a19.5,19.5,0,0,0,5.66-1v6.7a20.21,20.21,0,0,1-8.26,1.5q-5.4,0-7.86-2.73t-2.46-8.19V30.78H142V27l5-3,2.6-7h5.75v7h9.23v6.76h-9.23v15.9a3.51,3.51,0,0,0,1.08,2.83A4.25,4.25,0,0,0,159.21,50.43Z"/><path class="cls-1" d="M185.55,50.43a19.5,19.5,0,0,0,5.66-1v6.7A20.21,20.21,0,0,1,183,57.6q-5.4,0-7.86-2.73t-2.46-8.19V30.78h-4.31V27l5-3,2.6-7h5.75v7h9.23v6.76h-9.23v15.9a3.51,3.51,0,0,0,1.08,2.83A4.25,4.25,0,0,0,185.55,50.43Z"/><path class="cls-1" d="M211.74,57.6q-8,0-12.45-4.4t-4.48-12.45q0-8.29,4.14-12.82t11.46-4.53q7,0,10.88,4t3.89,11v4.36H203.92a8.66,8.66,0,0,0,2.27,6,8,8,0,0,0,6,2.15,24.71,24.71,0,0,0,5.63-.62,28.15,28.15,0,0,0,5.55-2v7a21.1,21.1,0,0,1-5,1.76A31.74,31.74,0,0,1,211.74,57.6Zm-1.27-27.79A5.71,5.71,0,0,0,206,31.62a8.41,8.41,0,0,0-1.86,5.15h12.63A7.5,7.5,0,0,0,215,31.62,5.89,5.89,0,0,0,210.47,29.81Z"/><path class="cls-1" d="M262.31,57h-9V37.74A9.26,9.26,0,0,0,252,32.39a4.62,4.62,0,0,0-4-1.78q-3.78,0-5.46,2.52t-1.68,8.36V57h-9V24h6.87L240,28.24h.5a9.5,9.5,0,0,1,4.14-3.61,14.12,14.12,0,0,1,6-1.22q5.75,0,8.73,3.11t3,9Z"/><path class="cls-1" d="M284.27,50.43a19.5,19.5,0,0,0,5.66-1v6.7a20.21,20.21,0,0,1-8.26,1.5q-5.4,0-7.86-2.73t-2.46-8.19V30.78H267V27l5-3,2.6-7h5.75v7h9.23v6.76h-9.23v15.9a3.51,3.51,0,0,0,1.08,2.83A4.25,4.25,0,0,0,284.27,50.43Z"/><path class="cls-1" d="M295.17,15.5q0-4.4,4.9-4.4t4.9,4.4a4.29,4.29,0,0,1-1.22,3.26,5.14,5.14,0,0,1-3.67,1.16Q295.17,19.93,295.17,15.5ZM304.55,57h-9V24h9Z"/><path class="cls-1" d="M342.91,40.46q0,8.05-4.25,12.6T326.83,57.6a16.54,16.54,0,0,1-8.38-2.08,13.84,13.84,0,0,1-5.58-6,20.07,20.07,0,0,1-1.95-9.09q0-8.08,4.22-12.57T327,23.41a16.66,16.66,0,0,1,8.38,2.06A13.79,13.79,0,0,1,341,31.4,19.91,19.91,0,0,1,342.91,40.46Zm-22.8,0q0,4.9,1.61,7.41A5.75,5.75,0,0,0,327,50.37a5.66,5.66,0,0,0,5.18-2.49q1.58-2.49,1.58-7.42t-1.59-7.35q-1.6-2.45-5.22-2.45T321.7,33.1Q320.11,35.53,320.11,40.46Z"/><path class="cls-1" d="M379.84,57h-9V37.74a9.26,9.26,0,0,0-1.27-5.35,4.62,4.62,0,0,0-4-1.78q-3.78,0-5.46,2.52t-1.68,8.36V57h-9V24h6.87l1.21,4.22h.5a9.5,9.5,0,0,1,4.14-3.61,14.12,14.12,0,0,1,6-1.22q5.75,0,8.73,3.11t3,9Z"/><path class="cls-1" d="M408.88,57l-1.74-4.48h-.24a13.27,13.27,0,0,1-4.67,4A15.1,15.1,0,0,1,396,57.6a10.13,10.13,0,0,1-7.48-2.71q-2.73-2.71-2.73-7.73,0-5.25,3.67-7.74t11.08-2.76l5.72-.18V35q0-5-5.13-5a23.39,23.39,0,0,0-9.29,2.39l-3-6.08a26.8,26.8,0,0,1,12.63-3q6.64,0,10.18,2.89T415.16,35V57Zm-2.66-15.28-3.48.12a11.15,11.15,0,0,0-5.84,1.42,4.45,4.45,0,0,0-1.92,4Q395,51,399.35,51a6.91,6.91,0,0,0,5-1.8,6.32,6.32,0,0,0,1.87-4.78Z"/><path class="cls-1" d="M432.28,57h-9V11.1h9Z"/><path class="cls-2" d="M86.45,33.81A46.55,46.55,0,0,0,60.3,12.95a46.77,46.77,0,0,0-37.64,4.72,48.79,48.79,0,0,0-15,14.65,3.17,3.17,0,1,0,5.25,3.57,51,51,0,0,1,6.3-7.56A39.63,39.63,0,0,1,80,35.39,39.84,39.84,0,0,1,63.1,50a18.35,18.35,0,0,0,2.14-8.62,19.17,19.17,0,0,0-.37-3.55A9.2,9.2,0,1,1,54.15,24.45a18.25,18.25,0,0,0-7.45-1.6,18.54,18.54,0,1,0,0,37.08A46.15,46.15,0,0,0,86.45,37l.93-1.6Z"/></svg>