<svg id="Layer_1" data-name="Layer 1" xmlns="http://www.w3.org/2000/svg" viewBox="0 0 340.16 212.6"><defs><style>.cls-1{fill:#fff;}</style></defs><title>Attentional Logo</title><path class="cls-1" d="M332.37,99.57A192.65,192.65,0,0,0,224.16,13.24C172.66-2.82,114.43,4.79,68.36,32.76c-25,15.19-45.92,36.42-62.16,60.62a13.13,13.13,0,1,0,21.72,14.76A210.93,210.93,0,0,1,54,76.85c38.75-38.23,96.91-53.81,149.77-42a165.36,165.36,0,0,1,102,71.25,164.88,164.88,0,0,1-70,60.5,75.93,75.93,0,0,0,8.87-35.67,79.32,79.32,0,0,0-1.52-14.7,38.09,38.09,0,1,1-44.37-55.4,75.52,75.52,0,0,0-30.83-6.63,76.73,76.73,0,1,0,0,153.46,190,190,0,0,0,94.83-25.55,189.39,189.39,0,0,0,69.65-69.38l3.85-6.63Z"/></svg>